<svg width="28" height="29" viewBox="0 0 28 29" fill="none" xmlns="http://www.w3.org/2000/svg">
<g id="Frame">
<path id="Vector" d="M10.5 15.3545L13.125 17.9795L17.5 11.8545M24.5 14.4795C24.5 15.9588 23.765 17.2678 22.6415 18.0588C22.7625 18.7504 22.7152 19.4609 22.5033 20.1303C22.2915 20.7997 21.9215 21.4081 21.4247 21.9042C20.9286 22.401 20.3202 22.771 19.6508 22.9828C18.9814 23.1946 18.2709 23.242 17.5793 23.121C17.1759 23.6955 16.64 24.1644 16.0169 24.4879C15.3939 24.8115 14.702 24.9801 14 24.9795C12.5207 24.9795 11.2117 24.2445 10.4207 23.121C9.72911 23.2419 9.01858 23.1945 8.34924 22.9827C7.67989 22.7709 7.07142 22.4009 6.57533 21.9042C6.07848 21.4081 5.70848 20.7997 5.49666 20.1303C5.28484 19.4609 5.23745 18.7504 5.3585 18.0588C4.78394 17.6554 4.31506 17.1195 3.99155 16.4964C3.66804 15.8734 3.49943 15.1815 3.5 14.4795C3.5 13.0002 4.235 11.6912 5.3585 10.9002C5.23745 10.2086 5.28484 9.49804 5.49666 8.82868C5.70848 8.15932 6.07848 7.55086 6.57533 7.05483C7.07142 6.55805 7.67989 6.1881 8.34924 5.97629C9.01858 5.76448 9.72911 5.71704 10.4207 5.83799C10.8242 5.26351 11.3601 4.79467 11.9831 4.47117C12.6062 4.14767 13.298 3.97902 14 3.97949C15.4793 3.97949 16.7883 4.71449 17.5793 5.83799C18.2709 5.71704 18.9814 5.76448 19.6508 5.97629C20.3201 6.1881 20.9286 6.55805 21.4247 7.05483C21.9214 7.55091 22.2914 8.15938 22.5032 8.82873C22.715 9.49807 22.7624 10.2086 22.6415 10.9002C23.2161 11.3036 23.6849 11.8395 24.0085 12.4626C24.332 13.0856 24.5006 13.7775 24.5 14.4795Z" stroke="black" stroke-width="1.5" stroke-linecap="round" stroke-linejoin="round"/>
</g>
</svg>
