<svg width="57" height="14" viewBox="0 0 57 14" fill="none" xmlns="http://www.w3.org/2000/svg">
<path d="M0.152 13V1.08H2.328V11.08H7.432V13H0.152ZM17.399 13.192C16.5243 13.192 15.7083 13.0373 14.951 12.728C14.1937 12.4187 13.5323 11.9867 12.967 11.432C12.4017 10.8773 11.959 10.2267 11.639 9.48C11.3297 8.72267 11.175 7.90667 11.175 7.032C11.175 6.14667 11.3297 5.33067 11.639 4.584C11.9483 3.83733 12.3857 3.18667 12.951 2.632C13.5163 2.07733 14.1777 1.65067 14.935 1.352C15.6923 1.04267 16.5137 0.888 17.399 0.888C18.2843 0.888 19.1057 1.04267 19.863 1.352C20.6203 1.66133 21.2817 2.09333 21.847 2.648C22.4123 3.192 22.8497 3.83733 23.159 4.584C23.479 5.33067 23.639 6.14667 23.639 7.032C23.639 7.90667 23.479 8.72267 23.159 9.48C22.839 10.2267 22.3963 10.8773 21.831 11.432C21.2657 11.9867 20.6043 12.4187 19.847 12.728C19.1003 13.0373 18.2843 13.192 17.399 13.192ZM17.399 11.208C17.9857 11.208 18.5243 11.1067 19.015 10.904C19.5057 10.6907 19.9323 10.3973 20.295 10.024C20.6683 9.65067 20.951 9.208 21.143 8.696C21.3457 8.184 21.447 7.62933 21.447 7.032C21.447 6.43467 21.3457 5.88533 21.143 5.384C20.951 4.872 20.6683 4.42933 20.295 4.056C19.9323 3.672 19.5057 3.37867 19.015 3.176C18.5243 2.97333 17.9857 2.872 17.399 2.872C16.823 2.872 16.2897 2.97333 15.799 3.176C15.3083 3.37867 14.8763 3.672 14.503 4.056C14.1403 4.42933 13.8577 4.872 13.655 5.384C13.4523 5.88533 13.351 6.43467 13.351 7.032C13.351 7.62933 13.4523 8.184 13.655 8.696C13.8577 9.208 14.1403 9.65067 14.503 10.024C14.8763 10.3973 15.3083 10.6907 15.799 10.904C16.2897 11.1067 16.823 11.208 17.399 11.208ZM34.2219 13.192C33.3685 13.192 32.5792 13.0373 31.8539 12.728C31.1285 12.4187 30.4939 11.9867 29.9499 11.432C29.4059 10.8773 28.9792 10.2267 28.6699 9.48C28.3712 8.73333 28.2219 7.91733 28.2219 7.032C28.2219 6.14667 28.3659 5.33067 28.6539 4.584C28.9525 3.82667 29.3685 3.176 29.9019 2.632C30.4459 2.07733 31.0805 1.65067 31.8059 1.352C32.5312 1.04267 33.3205 0.888 34.1739 0.888C35.0272 0.888 35.7899 1.032 36.4619 1.32C37.1445 1.608 37.7205 1.992 38.1899 2.472C38.6592 2.94133 38.9952 3.45867 39.1979 4.024L37.2619 4.952C37.0379 4.33333 36.6592 3.832 36.1259 3.448C35.5925 3.064 34.9419 2.872 34.1739 2.872C33.4272 2.872 32.7659 3.048 32.1899 3.4C31.6245 3.752 31.1819 4.23733 30.8619 4.856C30.5525 5.47467 30.3979 6.2 30.3979 7.032C30.3979 7.864 30.5579 8.59467 30.8779 9.224C31.2085 9.84267 31.6619 10.328 32.2379 10.68C32.8139 11.032 33.4752 11.208 34.2219 11.208C34.8299 11.208 35.3899 11.0907 35.9019 10.856C36.4139 10.6107 36.8245 10.2693 37.1339 9.832C37.4432 9.384 37.5979 8.856 37.5979 8.248V7.336L38.5899 8.2H34.1739V6.36H39.7739V7.56C39.7739 8.47733 39.6192 9.288 39.3099 9.992C39.0005 10.696 38.5792 11.288 38.0459 11.768C37.5232 12.2373 36.9312 12.5947 36.2699 12.84C35.6085 13.0747 34.9259 13.192 34.2219 13.192ZM50.3678 13.192C49.4931 13.192 48.6771 13.0373 47.9198 12.728C47.1624 12.4187 46.5011 11.9867 45.9358 11.432C45.3704 10.8773 44.9278 10.2267 44.6078 9.48C44.2984 8.72267 44.1438 7.90667 44.1438 7.032C44.1438 6.14667 44.2984 5.33067 44.6078 4.584C44.9171 3.83733 45.3544 3.18667 45.9198 2.632C46.4851 2.07733 47.1464 1.65067 47.9038 1.352C48.6611 1.04267 49.4824 0.888 50.3678 0.888C51.2531 0.888 52.0744 1.04267 52.8318 1.352C53.5891 1.66133 54.2504 2.09333 54.8158 2.648C55.3811 3.192 55.8184 3.83733 56.1278 4.584C56.4478 5.33067 56.6078 6.14667 56.6078 7.032C56.6078 7.90667 56.4478 8.72267 56.1278 9.48C55.8078 10.2267 55.3651 10.8773 54.7998 11.432C54.2344 11.9867 53.5731 12.4187 52.8158 12.728C52.0691 13.0373 51.2531 13.192 50.3678 13.192ZM50.3678 11.208C50.9544 11.208 51.4931 11.1067 51.9838 10.904C52.4744 10.6907 52.9011 10.3973 53.2638 10.024C53.6371 9.65067 53.9198 9.208 54.1118 8.696C54.3144 8.184 54.4158 7.62933 54.4158 7.032C54.4158 6.43467 54.3144 5.88533 54.1118 5.384C53.9198 4.872 53.6371 4.42933 53.2638 4.056C52.9011 3.672 52.4744 3.37867 51.9838 3.176C51.4931 2.97333 50.9544 2.872 50.3678 2.872C49.7918 2.872 49.2584 2.97333 48.7678 3.176C48.2771 3.37867 47.8451 3.672 47.4718 4.056C47.1091 4.42933 46.8264 4.872 46.6238 5.384C46.4211 5.88533 46.3198 6.43467 46.3198 7.032C46.3198 7.62933 46.4211 8.184 46.6238 8.696C46.8264 9.208 47.1091 9.65067 47.4718 10.024C47.8451 10.3973 48.2771 10.6907 48.7678 10.904C49.2584 11.1067 49.7918 11.208 50.3678 11.208Z" fill="#F43F5E"/>
</svg>
